<svg xmlns="http://www.w3.org/2000/svg" viewBox="0 0 64 64" role="img" aria-label="CloudOpsync">
  <defs>
    <linearGradient id="cloudopsync-blue" x1="8" y1="14" x2="56" y2="50" gradientUnits="userSpaceOnUse">
      <stop stop-color="#10b8ff"/>
      <stop offset="0.48" stop-color="#116bf2"/>
      <stop offset="1" stop-color="#061b66"/>
    </linearGradient>
  </defs>
  <rect x="4" y="4" width="56" height="56" rx="16" fill="#ffffff" stroke="#d9e8ff" stroke-width="1"/>
  <path
    d="M19 28.5c1.2-5.8 6.3-10.1 12.4-10.1 4.8 0 9 2.5 11.4 6.3h2c5.4 0 9.8 4.2 10 9.5.1 5.7-4.5 10.3-10.2 10.3H24.6c-5.4 0-9.8-4.2-10-9.5-.1-3.5 1.7-6.7 4.4-8.5z"
    fill="none"
    stroke="url(#cloudopsync-blue)"
    stroke-width="5.8"
    stroke-linecap="round"
    stroke-linejoin="round"
  />
  <path
    d="M30 37.5c0-5.6 4.5-10.2 10.1-10.2 3.5 0 6.6 1.8 8.4 4.5 1.8 2.8 4.9 4.6 8.4 4.6"
    fill="none"
    stroke="#0f6f7d"
    stroke-width="6.4"
    stroke-linecap="round"
    stroke-linejoin="round"
  />
</svg>
